Coordinates
version=1
nRows=16
nColumns=40
inDegrees=yes

Units are S.I. units (second, meters, Newtons, ...)
Angles are in degrees.

endheader
time	pelvis_tilt	pelvis_list	pelvis_rotation	pelvis_tx	pelvis_ty	pelvis_tz	hip_flexion_r	hip_adduction_r	hip_rotation_r	knee_angle_r	knee_angle_r_beta	ankle_angle_r	subtalar_angle_r	mtp_angle_r	hip_flexion_l	hip_adduction_l	hip_rotation_l	knee_angle_l	knee_angle_l_beta	ankle_angle_l	subtalar_angle_l	mtp_angle_l	lumbar_extension	lumbar_bending	lumbar_rotation	arm_flex_r	arm_add_r	arm_rot_r	elbow_flex_r	pro_sup_r	wrist_flex_r	wrist_dev_r	arm_flex_l	arm_add_l	arm_rot_l	elbow_flex_l	pro_sup_l	wrist_flex_l	wrist_dev_l
     30.71500000	     -6.03152736	     -3.72717027	    -10.34263511	      0.93678292	      0.92751387	      0.49012707	     19.31843583	      3.79511160	     -8.00146857	     16.70876105	     16.70876105	      5.87819059	      3.34282574	     -4.97550016	      3.20385091	     -6.96503367	    -12.30562977	     23.81864408	     23.81864408	     17.98196732	    -14.26629873	      2.31533848	     -8.98501602	      9.09934874	      1.31760574	    -10.73115554	    -12.74123014	    -20.73399160	     30.56079080	     46.87894204	      0.00000000	      0.00000000	     38.89826737	    -26.08814418	    -14.69525978	     79.29556379	     48.31001405	      0.00000000	      0.00000000
     30.73428571	     -5.93642226	     -3.87224049	     -9.79768735	      0.93731881	      0.92835219	      0.49378679	     18.48764961	      4.03896536	     -8.42902057	     16.30989928	     16.30989928	      6.20458732	      3.37556546	     -4.99167925	      4.25223119	     -7.68041720	    -11.49729430	     26.60387373	     26.60387373	     17.22221459	    -15.15663050	      1.88783776	     -9.06088698	      9.09386424	      1.43841570	     -9.75626774	    -12.92551500	    -20.57808757	     30.86058743	     46.85917774	      0.00000000	      0.00000000	     38.36225260	    -25.15132009	    -14.41401486	     79.24172349	     48.28603815	      0.00000000	      0.00000000
     30.75357143	     -5.89362130	     -4.01012882	     -9.19741998	      0.93765442	      0.92895925	      0.49728187	     17.74137748	      4.28875719	     -8.83260432	     15.90979337	     15.90979337	      6.50691547	      3.29080216	     -5.00809591	      5.65867620	     -8.41214085	    -10.47642016	     29.85761500	     29.85761500	     16.22900394	    -16.13222777	      1.27413460	     -9.03628054	      9.08330832	      1.55570349	     -8.79720251	    -13.16160402	    -20.40899934	     31.13340226	     46.83943978	      0.00000000	      0.00000000	     37.54027395	    -24.02287600	    -14.20114172	     79.12702138	     48.26319504	      0.00000000	      0.00000000
     30.77285714	     -5.79146565	     -4.15972208	     -8.56001115	      0.93784446	      0.92941679	      0.50060020	     17.01229816	      4.54612044	     -9.18730916	     15.62929469	     15.62929469	      6.81503067	      3.01703725	     -5.03641821	      7.26563552	     -9.13259735	     -9.30703674	     33.50168207	     33.50168207	     14.99073824	    -17.12279172	      0.62802380	     -9.06865832	      9.05423895	      1.65718045	     -7.72892521	    -13.39175998	    -20.21728393	     31.40335230	     46.81922018	      0.00000000	      0.00000000	     36.53858334	    -22.77872493	    -14.03398192	     78.93226058	     48.24034304	      0.00000000	      0.00000000
     30.79214286	     -5.60919305	     -4.33891642	     -7.87733524	      0.93785986	      0.92978216	      0.50376795	     16.30143016	      4.82075782	     -9.50385257	     15.51577100	     15.51577100	      7.14068937	      2.56742779	     -5.07334761	      8.99324863	     -9.84965582	     -8.04047723	     37.41005027	     37.41005027	     13.56197481	    -17.95498312	      0.14704485	     -9.19472588	      9.03265434	      1.75870895	     -6.52103406	    -13.60522218	    -20.02266136	     31.68815161	     46.80014498	      0.00000000	      0.00000000	     35.38756336	    -21.47349211	    -13.84462026	     78.62113734	     48.21268023	      0.00000000	      0.00000000
     30.81142857	     -5.45392526	     -4.52682359	     -7.18289995	      0.93769692	      0.92979613	      0.50685348	     15.73333204	      5.12309013	     -9.70006693	     15.56866194	     15.56866194	      7.53195767	      1.85397616	     -5.11805915	     10.93471816	    -10.54086692	     -6.67143901	     41.53641181	     41.53641181	     12.11080002	    -18.44835500	     -0.06960437	     -9.27493505	      8.98570598	      1.81506627	     -5.22624097	    -13.81695749	    -19.78632465	     31.94311186	     46.77997307	      0.00000000	      0.00000000	     33.99201319	    -20.11902791	    -13.68073274	     78.11169396	     48.18117421	      0.00000000	      0.00000000
     30.83071429	     -5.35905076	     -4.63273630	     -6.49019196	      0.93718371	      0.92943559	      0.50981602	     15.49879594	      5.41744708	     -9.34318183	     16.02210102	     16.02210102	      7.91541830	      0.05056039	     -5.00547680	     13.14299962	    -11.02010670	     -5.13926539	     45.82128717	     45.82128717	     11.01356823	    -18.74722444	      1.30806055	     -9.22404252	      8.83517559	      1.54780326	     -3.46806232	    -14.02265247	    -19.03280268	     31.86263196	     46.73377429	      0.00000000	      0.00000000	     32.29219485	    -18.79264819	    -14.04279584	     77.08799598	     48.17038691	      0.00000000	      0.00000000
     30.85000000	     -5.07722255	     -4.89282316	     -5.75570892	      0.93661120	      0.92904566	      0.51255293	     15.03304871	      5.74943817	     -9.62255097	     16.44458939	     16.44458939	      8.40671847	     -0.74238366	     -5.05974717	     15.15584686	    -11.54590066	     -3.55757399	     49.90211249	     49.90211249	      9.66515907	    -18.97966507	      2.21831575	     -9.49742210	      8.82003840	      1.57685175	     -1.89380428	    -14.21351320	    -18.69576939	     32.15129750	     46.70708341	      0.00000000	      0.00000000	     30.65841084	    -17.46458320	    -13.71184190	     76.21859598	     48.11878318	      0.00000000	      0.00000000
     30.86928571	     -4.91864744	     -5.04424922	     -4.99982997	      0.93571151	      0.92817540	      0.51512628	     14.99326449	      5.99516632	     -9.58826618	     17.33485424	     17.33485424	      8.97259261	     -2.22514285	     -4.99586026	     17.37501436	    -11.82478580	     -1.94842669	     53.78695420	     53.78695420	      8.73141488	    -19.10571602	      4.33708585	     -9.57097118	      8.70171326	      1.34445100	     -0.03022021	    -14.32384577	    -18.20312322	     32.48113609	     46.66914845	      0.00000000	      0.00000000	     28.83219611	    -16.34194404	    -13.43877295	     74.64618703	     48.05713911	      0.00000000	      0.00000000
     30.88857143	     -4.58222731	     -5.03202830	     -4.28825547	      0.93469923	      0.92752795	      0.51740259	     14.85984601	      6.08239936	     -9.28957433	     18.37700861	     18.37700861	      9.84332567	     -3.89868962	     -4.04672395	     19.48023581	    -11.54633025	     -0.13619377	     57.55230261	     57.55230261	     10.09718376	    -19.11571321	     12.77134840	     -9.83546097	      8.34196605	      1.11666215	      2.27680716	    -14.61234372	    -16.14182080	     32.02703929	     46.54456640	      0.00000000	      0.00000000	     27.24730959	    -14.96283953	    -13.34183269	     71.99791532	     47.98256168	      0.00000000	      0.00000000
     30.90785714	     -4.34735396	     -5.08931803	     -3.54258265	      0.93351192	      0.92628809	      0.51966955	     14.95427987	      6.18217166	     -9.36016893	     19.61107655	     19.61107655	     10.52560616	     -5.24224926	     -4.05210964	     21.39300529	    -11.66914184	      0.97903143	     60.31814967	     60.31814967	      9.22570760	    -19.24694928	     13.70419810	    -10.04735024	      8.08328219	      0.69816936	      4.35792907	    -14.51791255	    -15.76896992	     32.98611782	     46.49052329	      0.00000000	      0.00000000	     25.16062833	    -14.07990660	    -12.80176723	     69.92245221	     47.89295691	      0.00000000	      0.00000000
     30.92714286	     -3.91718335	     -5.26767480	     -2.79139306	      0.93228518	      0.92520246	      0.52182743	     14.75953116	      6.40967551	     -9.50798578	     20.69438447	     20.69438447	     11.16409815	     -6.40374082	     -4.08477172	     22.97796900	    -11.95661206	      1.86235439	     62.44635755	     62.44635755	      8.72109419	    -19.34461992	     14.45072154	    -10.57982019	      7.92636827	      0.59952875	      6.43507983	    -14.53803215	    -15.52141721	     33.88109091	     46.45105231	      0.00000000	      0.00000000	     23.16316689	    -12.92687741	    -12.20693840	     67.96983980	     47.80302221	      0.00000000	      0.00000000
     30.94642857	     -3.74773287	     -5.20633472	     -2.03124635	      0.93071697	      0.92365617	      0.52370363	     15.03278058	      6.49774138	     -9.08703972	     22.05470059	     22.05470059	     12.19693687	     -8.41725124	     -2.58282289	     24.94819537	    -11.88546913	      2.61482988	     64.21442105	     64.21442105	      9.99685407	    -19.40736310	     19.25121501	    -10.65811198	      7.57231551	      0.45946518	      8.39255313	    -14.64883180	    -13.76183883	     34.99577768	     46.29406661	      0.00000000	      0.00000000	     22.28272649	    -11.94365222	    -11.06941033	     62.18976073	     47.62109384	      0.00000000	      0.00000000
     30.96571429	     -3.49172159	     -5.22702030	     -1.26691590	      0.92915585	      0.92215253	      0.52541502	     15.14142826	      6.58191917	     -9.11948072	     23.30012283	     23.30012283	     13.12836585	     -9.66696051	     -1.68585371	     26.59785394	    -12.09782843	      2.91345137	     65.05488980	     65.05488980	     10.61799078	    -19.48083263	     20.77034009	    -10.97254425	      7.29993530	      0.28068157	     10.25499880	    -14.71431046	    -12.65113542	     36.94939184	     46.14851830	      0.00000000	      0.00000000	     20.84178487	    -11.12483870	     -9.85535785	     57.91498701	     47.45451080	      0.00000000	      0.00000000
     30.98500000	     -3.28779206	     -5.17547307	     -0.47546900	      0.92749044	      0.92056596	      0.52691253	     15.27080937	      6.57397249	     -9.22141588	     24.44467264	     24.44467264	     13.78808439	    -10.93577678	     -1.58191580	     28.15210261	    -12.30284013	      2.90262834	     65.06795757	     65.06795757	     11.26251166	    -19.53797608	     21.17419759	    -11.26661228	      6.98295829	     -0.47615031	     12.72668336	    -14.29414283	    -12.38118390	     38.70899540	     46.07601388	      0.00000000	      0.00000000	     18.65882040	    -10.62232764	     -9.09285571	     54.76370471	     47.33189453	      0.00000000	      0.00000000
     31.00428571	     -3.07523932	     -5.15208647	      0.30283166	      0.92581900	      0.91927874	      0.52816543	     15.28352407	      6.61709319	     -9.29208152	     25.39604839	     25.39604839	     14.61190519	    -12.00744551	     -0.47768100	     29.54729634	    -12.49670526	      2.72157429	     64.32592982	     64.32592982	     12.51254166	    -19.56651255	     22.54465076	    -11.53876925	      6.69592435	     -0.21098206	     14.37701219	    -14.58537745	    -11.23299585	     41.04292771	     45.92481268	      0.00000000	      0.00000000	     18.07380008	     -9.63709180	     -7.20864734	     48.51803599	     47.08973161	      0.00000000	      0.00000000
